<?xml version="1.0" standalone="no"?>
<!DOCTYPE svg PUBLIC "-//W3C//DTD SVG 20010904//EN"
 "http://www.w3.org/TR/2001/REC-SVG-20010904/DTD/svg10.dtd">
<svg version="1.0" xmlns="http://www.w3.org/2000/svg"
 width="1920.000000pt" height="1080.000000pt" viewBox="0 0 1920.000000 1080.000000"
 preserveAspectRatio="xMidYMid meet">

<g transform="translate(0.000000,1080.000000) scale(0.100000,-0.100000)"
fill="#000000" stroke="none">
<path d="M5435 7286 c-41 -25 -87 -76 -142 -156 l-31 -45 -165 -33 c-735 -144
-1197 -423 -1328 -802 -31 -91 -37 -230 -14 -301 34 -102 168 -205 281 -216
70 -7 164 12 244 50 140 66 258 232 266 374 5 86 -20 166 -53 171 -26 4 -39
-28 -24 -57 17 -31 13 -133 -8 -200 -50 -160 -162 -249 -333 -267 -60 -6 -65
-4 -113 27 -74 51 -100 108 -100 224 1 205 127 436 319 584 118 91 287 176
486 246 101 35 448 125 482 125 15 0 9 -17 -33 -92 -107 -196 -224 -453 -344
-758 -195 -494 -490 -891 -840 -1129 -179 -122 -308 -183 -501 -237 -90 -26
-113 -28 -259 -28 -141 0 -172 4 -259 27 -278 75 -452 233 -487 445 -22 135
15 297 98 422 50 75 146 173 207 212 28 17 53 33 55 35 3 2 0 8 -6 14 -27 27
-159 -48 -249 -143 -88 -92 -141 -186 -177 -318 -77 -275 48 -555 303 -678
169 -81 330 -108 589 -99 324 12 592 98 861 278 101 68 293 247 384 358 178
218 343 543 435 856 92 312 174 538 266 733 l57 121 75 16 c96 22 191 70 220
114 31 46 32 114 1 135 -35 25 -115 20 -163 -8z m83 -84 c2 -14 -5 -33 -18
-47 -21 -23 -126 -62 -137 -52 -3 3 21 33 53 67 62 65 96 76 102 32z"/>
<path d="M11405 7055 c-136 -26 -197 -45 -280 -85 -226 -111 -375 -331 -375
-552 0 -196 85 -339 248 -416 70 -33 86 -37 177 -40 117 -4 175 13 278 81 78
53 132 124 158 209 24 78 22 113 -5 113 -13 0 -22 -12 -31 -40 -19 -65 -44
-106 -104 -168 -106 -112 -238 -150 -384 -112 -267 69 -279 402 -23 648 140
135 280 199 500 228 162 21 466 -11 731 -77 99 -25 225 -63 225 -68 0 -2 -42
-91 -94 -197 -52 -107 -131 -273 -176 -369 -140 -299 -308 -605 -418 -759
-179 -252 -451 -427 -760 -488 -135 -26 -363 -24 -472 6 -233 63 -432 207
-512 371 -50 104 -68 186 -68 312 0 199 62 324 218 435 48 35 62 51 60 67 -5
33 -59 33 -116 0 -113 -66 -178 -159 -222 -314 -30 -110 -39 -200 -30 -301 23
-249 152 -435 381 -554 225 -116 471 -161 739 -135 155 14 235 31 369 76 308
103 511 294 685 642 73 146 102 219 197 500 87 256 162 436 246 585 43 77 59
97 71 92 296 -114 706 -190 833 -155 50 14 101 50 117 84 19 39 8 96 -19 96
-20 0 -23 -4 -33 -52 -4 -17 -18 -34 -38 -44 -44 -23 -229 -14 -398 19 -139
27 -430 106 -430 117 0 12 98 100 112 101 7 1 24 2 37 2 36 3 48 29 27 62 -15
22 -22 25 -49 20 -48 -10 -87 -38 -151 -105 l-58 -61 -211 70 c-369 122 -526
157 -743 165 -92 4 -152 1 -209 -9z"/>
<path d="M6120 6738 c-38 -27 -51 -49 -166 -298 -47 -102 -117 -244 -155 -317
l-70 -132 -46 21 c-129 57 -306 18 -451 -100 -65 -53 -159 -185 -213 -297
-137 -285 -95 -514 94 -515 108 0 179 58 319 260 17 25 17 24 11 -31 -10 -101
36 -196 110 -224 42 -16 49 -16 101 -1 65 19 150 92 211 181 21 30 39 55 39
55 1 0 2 -26 4 -58 5 -108 71 -192 150 -192 83 0 205 99 306 248 27 39 51 70
53 69 1 -2 -2 -31 -8 -65 -19 -109 7 -191 73 -232 69 -42 143 -15 234 82 34
36 82 100 109 142 26 42 48 76 49 76 0 0 1 -52 1 -114 l0 -115 34 -35 c44 -45
88 -60 165 -54 99 8 182 58 266 159 48 58 50 59 50 31 0 -16 5 -44 12 -63 28
-83 80 -122 163 -122 94 -1 183 65 275 206 l60 91 0 -65 c0 -111 59 -200 150
-227 64 -19 136 -24 201 -12 123 22 198 69 278 176 l48 63 12 -54 c27 -119
124 -191 256 -188 183 4 312 114 441 379 67 137 76 168 47 162 -11 -2 -38 -43
-71 -108 -118 -234 -219 -341 -350 -371 -71 -17 -116 -5 -148 37 -36 47 -43
148 -17 249 l18 70 47 7 c72 10 199 55 253 89 62 39 145 123 178 180 37 63 51
140 33 184 -34 80 -153 96 -276 39 -169 -79 -317 -267 -394 -499 -35 -105
-137 -251 -219 -311 -100 -74 -225 -84 -285 -23 -105 107 -53 378 116 606 95
127 182 193 256 193 86 0 86 -115 0 -227 -29 -38 -25 -53 17 -53 22 0 40 12
73 46 75 78 85 171 25 239 -39 45 -85 59 -173 53 -93 -6 -169 -40 -242 -110
-88 -83 -126 -140 -263 -398 -107 -201 -207 -333 -272 -361 -45 -18 -104 2
-117 40 -18 50 6 125 139 434 71 166 129 309 129 319 0 28 -33 38 -130 38
l-92 0 16 -25 c26 -40 19 -75 -45 -236 -108 -269 -247 -496 -340 -555 -52 -33
-127 -34 -156 -1 -54 59 -55 169 -3 332 32 98 34 102 119 190 155 161 282 350
406 600 41 83 83 178 94 212 28 82 28 177 1 221 -18 29 -24 32 -68 32 -59 0
-117 -34 -182 -107 -122 -136 -321 -552 -449 -938 -50 -153 -122 -291 -220
-423 -71 -96 -118 -135 -158 -130 l-28 3 1 80 c0 49 7 103 18 138 26 81 125
279 178 359 l45 66 -30 6 c-51 10 -117 7 -146 -8 -32 -17 -58 -54 -126 -181
-159 -294 -299 -455 -396 -455 -57 0 -73 30 -67 121 5 60 14 87 56 173 28 55
74 137 103 181 66 100 236 271 304 305 90 45 179 27 213 -43 16 -32 37 -35 53
-6 15 28 -11 63 -76 104 -41 25 -61 31 -126 34 -244 11 -465 -170 -610 -501
-108 -246 -247 -401 -332 -369 -46 18 -49 98 -6 221 70 206 498 1029 668 1286
l48 72 -45 6 c-84 11 -128 7 -162 -16z m1500 -132 c0 -152 -253 -607 -477
-861 -24 -26 -43 -45 -43 -42 0 18 174 411 251 568 92 187 154 291 206 347 44
46 63 43 63 -12z m-1936 -641 l24 -16 -75 -137 c-214 -392 -359 -590 -458
-628 -63 -24 -94 -3 -108 73 -24 123 124 395 313 577 138 133 236 175 304 131z
m3524 -43 c7 -115 -96 -246 -248 -320 -77 -37 -170 -64 -170 -49 0 13 101 177
139 224 57 73 142 158 182 182 19 12 47 20 64 19 29 -3 30 -5 33 -56z"/>
<path d="M15449 6675 c-91 -47 -185 -181 -310 -440 l-61 -125 -77 0 c-83 0
-119 -15 -108 -43 5 -12 23 -17 80 -19 l74 -3 -38 -100 c-22 -55 -64 -175 -95
-266 -98 -295 -225 -472 -377 -523 -89 -30 -143 -17 -185 44 -22 32 -23 43
-19 130 2 52 10 113 18 135 13 38 17 40 66 47 65 10 196 57 248 90 117 74 215
217 215 314 0 47 -3 55 -35 83 -20 17 -47 34 -61 37 -47 12 -122 -3 -196 -38
-143 -68 -273 -221 -362 -426 -86 -199 -214 -365 -322 -418 -30 -15 -57 -25
-59 -23 -2 3 1 25 7 49 5 25 11 81 11 125 2 67 -2 86 -21 116 -25 42 -74 69
-124 70 l-33 0 30 22 c17 12 59 51 95 87 86 87 132 177 131 260 0 108 -51 161
-157 168 -159 10 -270 -80 -389 -318 -21 -41 -41 -77 -44 -80 -4 -3 -30 -52
-58 -110 -66 -134 -116 -211 -187 -282 -85 -86 -166 -100 -236 -42 l-30 26 56
61 c147 159 231 357 222 527 -8 152 -61 212 -188 214 -56 0 -78 -5 -131 -32
-318 -157 -541 -663 -371 -841 71 -75 157 -78 290 -11 65 33 79 37 92 26 35
-31 81 -46 142 -46 157 1 249 99 424 455 76 154 97 189 149 241 51 52 69 64
114 74 48 11 58 11 88 -5 43 -23 73 -72 73 -119 0 -56 -35 -113 -119 -197 -60
-59 -92 -82 -154 -110 -63 -27 -77 -38 -75 -54 2 -16 9 -19 38 -17 19 2 56 15
82 28 59 30 73 30 103 0 43 -43 43 -159 0 -302 l-15 -50 -127 -38 c-202 -61
-461 -153 -548 -196 -206 -101 -334 -258 -311 -382 11 -57 65 -130 116 -155
158 -80 496 53 726 285 121 122 216 264 278 414 28 65 29 67 86 87 31 12 78
37 102 56 47 35 125 129 169 200 l24 40 6 -60 c10 -99 51 -162 134 -202 158
-78 359 7 489 207 l36 55 0 -65 c1 -103 41 -170 122 -205 47 -19 71 -19 135 0
66 20 167 112 229 210 26 41 48 75 48 75 1 0 -1 -29 -2 -65 -5 -87 28 -161 89
-202 35 -23 53 -28 103 -27 95 0 182 56 259 166 l42 60 6 -54 c12 -112 71
-170 173 -171 31 -1 65 7 85 17 55 29 140 115 192 194 58 88 149 273 149 302
0 42 -25 13 -88 -101 -124 -224 -196 -317 -268 -347 -42 -18 -94 -4 -114 30
-24 44 -1 119 140 446 71 167 130 310 130 317 0 25 -37 35 -130 35 l-91 0 16
-30 c8 -16 15 -38 15 -49 0 -41 -134 -359 -194 -460 -113 -192 -205 -280 -292
-281 -89 0 -101 62 -53 275 l33 149 70 76 c94 102 180 210 238 300 l49 75 87
5 c75 4 87 8 90 24 5 27 -15 36 -80 36 -32 0 -58 2 -58 5 0 3 27 60 60 126 77
152 98 205 109 275 22 141 -46 217 -147 165 -99 -50 -164 -139 -297 -401 l-86
-170 -85 0 c-65 0 -85 3 -81 13 3 6 37 80 76 162 38 83 74 170 80 195 25 107
4 190 -51 209 -41 15 -46 14 -99 -14z m97 -100 c14 -56 -18 -159 -103 -332
l-65 -133 -68 0 -69 0 21 48 c122 277 222 442 270 442 4 0 10 -11 14 -25z
m532 -27 c4 -61 -32 -165 -108 -318 l-60 -120 -66 0 c-80 0 -82 -17 31 215 58
119 97 186 130 223 26 29 53 51 59 49 6 -2 12 -24 14 -49z m-748 -506 c0 -11
-114 -178 -155 -227 -19 -22 -50 -58 -70 -80 l-36 -40 14 35 c7 19 40 99 72
178 l58 142 58 0 c33 0 59 -4 59 -8z m250 4 c0 -2 -20 -55 -44 -118 -24 -62
-64 -177 -90 -256 -58 -182 -144 -331 -252 -437 -72 -70 -156 -87 -193 -39
-30 38 -27 98 11 267 l31 142 86 90 c96 100 155 175 225 283 l47 72 89 0 c50
0 90 -2 90 -4z m274 -25 c-54 -91 -230 -318 -240 -308 -4 4 105 279 126 318 9
15 22 19 71 19 l60 0 -17 -29z m-1048 -67 c24 -95 -51 -224 -182 -313 -91 -61
-234 -112 -234 -83 0 5 23 47 51 93 113 186 257 329 331 329 21 0 29 -6 34
-26z m-1772 -47 c18 -24 21 -42 20 -110 -1 -100 -36 -208 -109 -343 l-49 -89
-7 35 c-9 44 -34 62 -84 58 -73 -5 -104 -89 -69 -183 8 -22 16 -44 17 -49 1
-6 -20 -25 -47 -43 -60 -41 -112 -44 -152 -10 -60 52 -38 207 55 403 78 163
174 284 271 343 52 32 126 26 154 -12z m596 -922 c0 -19 -60 -133 -107 -204
-157 -235 -426 -436 -601 -449 -71 -5 -113 8 -142 42 -18 23 -14 116 9 175 65
171 202 255 626 383 186 56 215 63 215 53z"/>
<path d="M7776 6310 c-89 -27 -124 -139 -59 -190 30 -23 61 -25 106 -6 48 20
69 50 74 103 4 41 1 51 -19 70 -28 26 -64 35 -102 23z"/>
<path d="M16245 6306 c-45 -20 -76 -59 -82 -103 -7 -51 33 -103 78 -103 73 0
139 61 139 128 0 65 -73 107 -135 78z"/>
</g>
</svg>
