<svg width="270" height="65" viewBox="0 0 270 65" fill="none" xmlns="http://www.w3.org/2000/svg">
<path d="M41.4032 22.0516C42.8852 21.3955 43.8198 18.8102 41.9853 13.6441C42.3123 12.4306 41.7302 10.4853 40.3804 8.38404C38.8451 5.9983 36.6001 3.87407 34.0629 2.40134C30.8693 0.550092 27.3742 -0.241331 23.6727 0.0637679C15.7758 0.703788 13.5679 2.97254 13.1017 4.76184C12.5892 6.74613 14.0294 9.03094 17.0606 11.0267C17.0676 11.0313 17.0746 11.0359 17.0838 11.0405C19.0668 12.2081 21.0265 12.4971 22.9561 12.4237C22.6013 12.6875 22.3346 13.05 22.1699 13.5065C21.4301 15.5642 22.9607 18.8446 25.8969 21.4896C25.9038 21.4964 25.9131 21.5056 25.9201 21.5102C29.327 24.1942 29.1716 27.2796 29.0649 29.3212C29.0093 30.3879 28.9699 31.161 29.4267 31.6381C29.4894 31.7024 29.5566 31.762 29.6308 31.8079C29.8233 31.9295 30.0599 31.9937 30.3382 31.9983C30.3475 32.0006 30.3637 32.0006 30.3753 31.9983C31.7947 31.9134 32.1402 29.9635 32.6203 27.2589C32.7525 26.5065 32.8917 25.7105 33.0633 24.9053C34.1974 26.7909 35.4034 27.6328 36.6558 27.408C38.4995 27.0846 39.6128 24.5451 40.0905 22.1571C40.5242 22.2672 40.9765 22.2397 41.4032 22.0516ZM40.4639 12.4214C40.6402 12.8435 40.8025 13.245 40.944 13.6281C40.7144 14.0181 40.2923 14.2819 39.6847 14.4218C39.6267 14.4356 39.5687 14.4447 39.5107 14.4539C38.9727 13.2679 38.1563 12.2861 36.992 11.7218C34.0118 9.94853 31.0548 10.2055 28.179 10.6987C28.1674 10.6918 28.1604 10.6872 28.1489 10.6803C27.1075 9.97835 26.0268 9.01029 24.9553 7.98947C25.5931 7.87477 26.2262 7.75319 26.8362 7.6362C33.0099 6.44792 37.4768 5.59226 40.4639 12.4214ZM33.061 21.3749C32.9728 21.5974 32.894 21.8245 32.8128 22.0516C30.9853 17.8513 29.4105 14.3576 26.9521 12.7977C26.5045 12.5132 26.0268 12.2907 25.5142 12.1462C26.0662 12.059 26.6205 11.9558 27.1701 11.8571C27.4368 11.8112 27.6989 11.7608 27.9587 11.7149C31.2079 13.8024 35.8 15.5986 38.8544 15.4885C39.3693 16.9681 39.5014 18.7689 39.3461 20.4779C39.2579 20.354 39.1768 20.221 39.1049 20.0742C38.2862 18.395 37.3469 17.5645 36.3102 17.6081C35.1065 17.6586 34.0095 18.9203 33.061 21.3749ZM29.4314 11.474C31.8271 11.1391 34.151 11.1529 36.5027 12.5568C36.5143 12.5637 36.5282 12.5728 36.5421 12.5751C36.6697 12.6371 36.7972 12.7059 36.9155 12.7816C37.5603 13.1922 38.0658 13.7955 38.4508 14.525C35.9206 14.4906 32.2724 13.1234 29.4314 11.474ZM23.7609 1.02036C31.2728 0.410159 36.8483 4.69073 39.5594 8.90018C39.6197 8.99424 39.6777 9.08829 39.7357 9.18234C36.4424 4.80772 31.8457 5.68861 26.646 6.67961C25.9317 6.81495 25.1942 6.95948 24.4474 7.08794C24.3221 7.1017 24.2015 7.11776 24.0786 7.13382C23.9627 7.01912 23.8421 6.90671 23.7284 6.79201C22.2256 5.32387 20.7018 3.83048 19.2314 2.89683C18.7119 2.5665 18.2017 2.30958 17.6961 2.14441C19.2801 1.60303 21.3234 1.21993 23.7609 1.02036ZM22.7729 7.21181C18.6354 7.2554 16.4066 5.17935 16.0587 2.99089C17.8654 2.49539 20.2542 4.75267 22.7729 7.21181ZM17.5917 10.2146C14.9386 8.46433 13.6491 6.56262 14.0526 5.005C14.1987 4.44298 14.5652 3.92454 15.1403 3.45886C15.145 3.45657 15.1519 3.45657 15.1519 3.45657C15.7549 6.1107 18.5983 8.53544 23.7191 8.13629C24.7512 9.14105 25.8041 10.1298 26.8454 10.9304C23.6751 11.5084 20.667 12.0177 17.5917 10.2146ZM31.6555 27.0846C31.3192 28.9886 30.9713 30.9591 30.3312 31.0256C30.2617 31.0233 30.1782 31.0119 30.1411 30.9729C29.9718 30.7916 30.0135 30.0346 30.046 29.3648C30.1527 27.2635 30.3312 23.7491 26.5439 20.7578C23.5962 18.099 22.5758 15.2545 23.0929 13.8254C23.297 13.2587 23.7377 12.9514 24.4033 12.9055C27.9285 13.2519 29.763 17.4659 32.0799 22.7971C32.182 23.0334 32.2863 23.2697 32.3861 23.5083C32.073 24.7309 31.8527 25.9582 31.6555 27.0846ZM36.4841 26.4583C35.6214 26.612 34.6218 25.7357 33.6663 23.9946C33.5828 23.8088 33.4993 23.6207 33.4204 23.4371C33.5782 22.8568 33.7614 22.2833 33.9771 21.7235C34.7401 19.7507 35.6098 18.606 36.3589 18.5785C36.9503 18.551 37.6159 19.2369 38.2352 20.4963C38.481 21.0009 38.8126 21.4116 39.1907 21.7052C38.7199 24.2928 37.6252 26.2564 36.4841 26.4583ZM41.002 21.1684C40.7631 21.2739 40.5057 21.2762 40.2529 21.1982C40.4964 19.3539 40.4431 17.2067 39.8609 15.3738C39.8725 15.3715 39.8911 15.3669 39.9027 15.3646C40.4778 15.2339 40.9533 15.0113 41.3151 14.6948C42.7043 19.0235 41.7952 20.8174 41.002 21.1684Z" fill="black"/>
<path d="M4.36914 40.9813L4.38997 40.7082C4.51493 39.123 4.55196 38.3247 3.81374 36.92C3.29074 36.4132 3.35553 35.5569 3.94796 35.1288L4.7718 34.5364L3.69572 33.8468C3.23057 33.5505 3.05932 32.9072 3.30231 32.4143C3.84845 31.3081 3.32082 30.6648 2.53401 30.2922C1.21262 29.6628 -0.2777 29.2555 1.26816 26.7955C3.06164 23.9468 3.88779 22.1857 3.72349 20.4154C0.488288 19.492 0 18.1081 0 18.1081C0.684992 18.9366 2.37202 19.1472 3.53141 19.1865C2.22854 10.3349 9.15945 1.19162 9.15945 1.19162C5.95434 28.6931 42.444 25.6407 27.9134 65C30.0286 50.0667 22.8871 40.1066 7.16696 43.6565C5.62341 44.0036 4.24649 42.5573 4.36914 40.9813Z" fill="#52A8A7"/>
<path d="M55.76 21.96L56.16 23.84C56.16 24.2933 56 24.6667 55.68 24.96C55.36 25.2533 54.9867 25.4 54.56 25.4C54.1333 25.4 53.8133 25.2 53.6 24.8C53.4133 24.4 53.32 23.96 53.32 23.48C53.32 22.04 53.9333 20.7467 55.16 19.6C56.4133 18.4267 57.8267 17.84 59.4 17.84H59.64C60.1733 15.8133 60.9733 14.8 62.04 14.8C62.36 14.8 62.52 15.2267 62.52 16.08C62.52 16.24 62.48 16.88 62.4 18C62.8 18.0533 63.2667 18.12 63.8 18.2C65.0533 18.3867 66.0933 18.48 66.92 18.48C67.7733 18.48 68.6267 18.3467 69.48 18.08C70.36 17.7867 70.9467 17.64 71.24 17.64C71.9867 17.64 72.36 18.0267 72.36 18.8C72.36 19.5467 71.96 20.12 71.16 20.52C70.36 20.8933 69.2 21.08 67.68 21.08C66.16 21.08 64.3067 20.7333 62.12 20.04C61.8 21.88 61.6133 23.2667 61.56 24.2C61.5067 25.1333 61.4533 26.52 61.4 28.36C62.52 28.3067 64.0667 28.28 66.04 28.28C66.3867 28.28 66.68 28.4133 66.92 28.68C67.1867 28.9467 67.32 29.2267 67.32 29.52C67.32 29.8133 67.2267 30.0533 67.04 30.24C66.8533 30.4267 66.6533 30.52 66.44 30.52L61.36 30.24C61.2533 32.8533 61.16 34.6267 61.08 35.56C61.0267 36.4933 60.7733 37.36 60.32 38.16C59.8667 38.96 59.3333 39.36 58.72 39.36C58.3733 39.36 57.9867 39.1733 57.56 38.8C57.16 38.4533 56.96 38.12 56.96 37.8C56.96 37.48 57 37.24 57.08 37.08C57.1867 36.8933 57.2933 36.72 57.4 36.56C57.5333 36.3733 57.6267 36.2267 57.68 36.12C58 35.4267 58.2933 33.52 58.56 30.4L57 30.6C56.7867 30.6 56.6133 30.5333 56.48 30.4C56.3467 30.24 56.28 30.0667 56.28 29.88C56.28 29.6667 56.32 29.48 56.4 29.32C56.48 29.16 56.64 29.04 56.88 28.96C57.12 28.8533 57.2933 28.7867 57.4 28.76C57.8267 28.6533 58.2533 28.6 58.68 28.6C58.7333 27.96 58.8 26.5733 58.88 24.44C58.9867 22.3067 59.1333 20.64 59.32 19.44C59.16 19.4133 58.92 19.4 58.6 19.4C56.7067 19.4 55.76 20.2533 55.76 21.96ZM74.2472 38.2C72.7539 38.2 71.5672 37.64 70.6872 36.52C69.8072 35.3733 69.3672 34.08 69.3672 32.64C69.3672 29.7333 69.9805 27.5333 71.2072 26.04C72.4339 24.5467 74.0205 23.8 75.9672 23.8C76.8739 23.8 77.6205 24.0533 78.2072 24.56C78.7939 25.04 79.0872 25.7067 79.0872 26.56C79.0872 28.16 78.4072 29.5067 77.0472 30.6C75.7139 31.6667 74.0739 32.2267 72.1272 32.28C72.2339 33.32 72.5805 34.2267 73.1672 35C73.7805 35.7467 74.4872 36.12 75.2872 36.12C76.0872 36.12 76.8072 35.9333 77.4472 35.56C78.0872 35.1867 78.6739 34.6533 79.2072 33.96C80.3272 32.4933 81.2872 30.8267 82.0872 28.96C82.3005 28.48 82.4605 28.1333 82.5672 27.92C82.7005 27.7067 82.8339 27.6 82.9672 27.6C83.1272 27.6 83.2072 27.7067 83.2072 27.92C83.2072 29.2533 82.3939 31.2533 80.7672 33.92C79.0072 36.7733 76.8339 38.2 74.2472 38.2ZM72.1272 31.32C73.7005 31.0533 74.8472 30.5467 75.5672 29.8C76.3139 29.0533 76.6872 28.08 76.6872 26.88C76.6872 25.68 76.3005 25.08 75.5272 25.08C74.5939 25.08 73.8072 25.7333 73.1672 27.04C72.5272 28.32 72.1805 29.7467 72.1272 31.32ZM84.5659 27.56L86.7659 27.32C86.9793 27.32 87.1659 27.44 87.3259 27.68C87.4859 27.92 87.5659 28.1733 87.5659 28.44C87.5659 28.7067 87.4726 29.6133 87.2859 31.16C87.1259 32.7067 87.0459 33.9333 87.0459 34.84C87.0459 35.72 87.1259 36.16 87.2859 36.16C87.7393 36.1333 88.3659 35.5733 89.1659 34.48C89.9659 33.36 90.7526 31.9333 91.5259 30.2C92.3259 28.4667 92.8059 27.6 92.9659 27.6C93.1526 27.6 93.2459 27.7067 93.2459 27.92C93.2459 28.6667 92.8593 29.8533 92.0859 31.48C89.9793 35.96 88.2059 38.2 86.7659 38.2C85.7259 38.2 84.9393 37.9867 84.4059 37.56C84.2193 37.3733 84.1259 36.2133 84.1259 34.08C84.1259 31.9467 84.3526 30.12 84.8059 28.6C83.2593 28.6 82.1793 28.1067 81.5659 27.12C81.2459 26.6133 81.0859 26.04 81.0859 25.4C81.0859 24.76 81.2193 24.2 81.4859 23.72C81.7526 23.24 82.1259 23 82.6059 23C83.1126 23 83.5659 23.2667 83.9659 23.8C84.3926 24.3067 84.6059 24.88 84.6059 25.52C84.6059 26.16 84.4193 26.8 84.0459 27.44C84.1526 27.52 84.3259 27.56 84.5659 27.56ZM94.4013 35.84L94.4413 37.08C94.4413 37.8267 94.2279 38.2 93.8013 38.2C93.1613 38.2 92.5479 38.12 91.9613 37.96C91.3746 37.7733 91.0812 37.5333 91.0812 37.24C91.0812 36.92 91.1479 35.8667 91.2812 34.08C91.4413 32.2667 91.5213 30.9067 91.5213 30V27.64C91.5213 26.36 91.6546 25.5867 91.9213 25.32C92.1879 25.0533 92.6546 24.6667 93.3213 24.16C94.0146 23.6533 94.5079 23.4 94.8013 23.4C95.1213 23.4 95.3213 23.4533 95.4013 23.56C95.4813 23.6667 95.5213 23.8667 95.5213 24.16C95.5213 25.5733 95.2546 26.9067 94.7213 28.16C94.5879 29.68 94.5213 30.7333 94.5213 31.32C94.6279 31.16 95.1879 30.2533 96.2013 28.6C97.2146 26.9467 98.0679 25.7333 98.7613 24.96C99.4813 24.1867 100.121 23.8 100.681 23.8C101.241 23.8 101.735 23.9867 102.161 24.36C102.615 24.7333 102.841 25.2 102.841 25.76C102.841 26.9333 102.708 28.6667 102.441 30.96C102.201 33.2267 102.081 34.6667 102.081 35.28C102.081 35.8667 102.161 36.16 102.321 36.16C102.775 36.1333 103.401 35.5733 104.201 34.48C105.001 33.36 105.788 31.9333 106.561 30.2C107.361 28.4667 107.841 27.6 108.001 27.6C108.188 27.6 108.281 27.7067 108.281 27.92C108.281 28.6667 107.895 29.8533 107.121 31.48C105.015 35.96 103.241 38.2 101.801 38.2C100.761 38.2 99.9746 37.9867 99.4413 37.56C99.2546 37.3733 99.1613 36.8933 99.1613 36.12C99.1613 35.32 99.2279 34.04 99.3613 32.28C99.5213 30.4933 99.6013 29.16 99.6013 28.28C99.6013 27.4 99.4413 26.96 99.1213 26.96C98.8279 26.96 98.0279 27.88 96.7213 29.72C95.4146 31.5333 94.7213 32.6933 94.6413 33.2C94.4813 34.1333 94.4013 35.0133 94.4013 35.84ZM117.365 38.2C116.325 38.2 115.538 37.9867 115.005 37.56C114.818 37.3733 114.725 36.9067 114.725 36.16C114.725 35.3867 114.752 34.36 114.805 33.08C114.112 34.8133 113.418 36.1067 112.725 36.96C112.058 37.7867 111.192 38.2 110.125 38.2C109.058 38.2 108.125 37.7067 107.325 36.72C106.525 35.7067 106.125 34.1333 106.125 32C106.125 29.84 106.725 27.9333 107.925 26.28C109.152 24.6267 110.752 23.8 112.725 23.8C113.578 23.8 114.538 24.36 115.605 25.48C115.818 25.1867 116.192 24.84 116.725 24.44C117.285 24.0133 117.752 23.8 118.125 23.8C118.525 23.8 118.725 24.3067 118.725 25.32C118.725 25.5867 118.645 26.1067 118.485 26.88C118.352 27.6533 118.192 28.2133 118.005 28.56C117.765 29.1733 117.645 31.3467 117.645 35.08C117.645 35.8 117.725 36.16 117.885 36.16C118.338 36.1333 118.965 35.5733 119.765 34.48C120.565 33.36 121.352 31.9333 122.125 30.2C122.925 28.4667 123.405 27.6 123.565 27.6C123.752 27.6 123.845 27.7067 123.845 27.92C123.845 28.6667 123.458 29.8533 122.685 31.48C120.578 35.96 118.805 38.2 117.365 38.2ZM112.485 25.4C111.738 25.4 110.938 25.96 110.085 27.08C109.258 28.1733 108.845 29.4667 108.845 30.96C108.845 32.4533 109.058 33.68 109.485 34.64C109.938 35.6 110.525 36.08 111.245 36.08C112.125 36.08 113.418 33.88 115.125 29.48C115.152 29.2667 115.178 28.9067 115.205 28.4C115.258 27.8667 115.298 27.4667 115.325 27.2C115.085 26.7733 114.658 26.3733 114.045 26C113.458 25.6 112.938 25.4 112.485 25.4ZM124.558 35.84L124.598 37.08C124.598 37.8267 124.384 38.2 123.958 38.2C123.318 38.2 122.704 38.12 122.118 37.96C121.531 37.7733 121.237 37.5333 121.237 37.24C121.237 36.92 121.304 35.8667 121.438 34.08C121.598 32.2667 121.678 30.9067 121.678 30V27.64C121.678 26.36 121.811 25.5867 122.078 25.32C122.344 25.0533 122.811 24.6667 123.478 24.16C124.171 23.6533 124.664 23.4 124.958 23.4C125.278 23.4 125.478 23.4533 125.558 23.56C125.638 23.6667 125.678 23.8667 125.678 24.16C125.678 25.5733 125.411 26.9067 124.878 28.16C124.744 29.68 124.678 30.7333 124.678 31.32C124.784 31.16 125.344 30.2533 126.358 28.6C127.371 26.9467 128.224 25.7333 128.918 24.96C129.638 24.1867 130.278 23.8 130.838 23.8C131.398 23.8 131.891 23.9867 132.318 24.36C132.771 24.7333 132.998 25.2 132.998 25.76C132.998 26.9333 132.864 28.6667 132.598 30.96C132.358 33.2267 132.238 34.6667 132.238 35.28C132.238 35.8667 132.318 36.16 132.478 36.16C132.931 36.1333 133.558 35.5733 134.358 34.48C135.158 33.36 135.944 31.9333 136.718 30.2C137.518 28.4667 137.998 27.6 138.158 27.6C138.344 27.6 138.438 27.7067 138.438 27.92C138.438 28.6667 138.051 29.8533 137.278 31.48C135.171 35.96 133.398 38.2 131.958 38.2C130.918 38.2 130.131 37.9867 129.598 37.56C129.411 37.3733 129.318 36.8933 129.318 36.12C129.318 35.32 129.384 34.04 129.518 32.28C129.678 30.4933 129.758 29.16 129.758 28.28C129.758 27.4 129.598 26.96 129.278 26.96C128.984 26.96 128.184 27.88 126.878 29.72C125.571 31.5333 124.878 32.6933 124.798 33.2C124.638 34.1333 124.558 35.0133 124.558 35.84ZM147.681 38.2C146.775 38.2 146.068 38 145.561 37.6C145.348 37.3867 145.241 36.8267 145.241 35.92C145.241 35.0133 145.281 33.8267 145.361 32.36C144.641 34.28 143.908 35.7333 143.161 36.72C142.415 37.7067 141.468 38.2 140.321 38.2C139.201 38.2 138.241 37.7067 137.441 36.72C136.668 35.7333 136.281 34.16 136.281 32C136.281 29.84 136.881 27.9333 138.081 26.28C139.308 24.6267 140.908 23.8 142.881 23.8C143.841 23.8 144.841 24.1733 145.881 24.92C146.308 19.72 146.695 16.7867 147.041 16.12C147.201 15.8267 147.575 15.4 148.161 14.84C148.775 14.28 149.281 14 149.681 14C150.081 14 150.281 14.6267 150.281 15.88C150.281 17.3467 150.148 18.6133 149.881 19.68C149.161 22.4267 148.708 24.1733 148.521 24.92C148.148 27.8 147.961 31.1867 147.961 35.08C147.961 35.8 148.041 36.16 148.201 36.16C148.681 36.1333 149.321 35.5733 150.121 34.48C150.921 33.3867 151.708 31.9733 152.481 30.24C153.281 28.48 153.761 27.6 153.921 27.6C154.108 27.6 154.201 27.7067 154.201 27.92C154.201 28.6667 153.815 29.8533 153.041 31.48C150.935 35.96 149.148 38.2 147.681 38.2ZM142.641 25.24C141.921 25.24 141.201 25.8133 140.481 26.96C139.761 28.1067 139.401 29.44 139.401 30.96C139.401 32.4533 139.588 33.68 139.961 34.64C140.361 35.6 140.855 36.08 141.441 36.08C142.641 36.08 144.015 33.68 145.561 28.88C145.695 27.4133 145.761 26.5467 145.761 26.28C144.988 25.5867 143.948 25.24 142.641 25.24ZM163.263 38.2C162.223 38.2 161.437 37.9867 160.903 37.56C160.717 37.3733 160.623 36.9067 160.623 36.16C160.623 35.3867 160.65 34.36 160.703 33.08C160.01 34.8133 159.317 36.1067 158.623 36.96C157.957 37.7867 157.09 38.2 156.023 38.2C154.957 38.2 154.023 37.7067 153.223 36.72C152.423 35.7067 152.023 34.1333 152.023 32C152.023 29.84 152.623 27.9333 153.823 26.28C155.05 24.6267 156.65 23.8 158.623 23.8C159.477 23.8 160.437 24.36 161.503 25.48C161.717 25.1867 162.09 24.84 162.623 24.44C163.183 24.0133 163.65 23.8 164.023 23.8C164.423 23.8 164.623 24.3067 164.623 25.32C164.623 25.5867 164.543 26.1067 164.383 26.88C164.25 27.6533 164.09 28.2133 163.903 28.56C163.663 29.1733 163.543 31.3467 163.543 35.08C163.543 35.8 163.623 36.16 163.783 36.16C164.237 36.1333 164.863 35.5733 165.663 34.48C166.463 33.36 167.25 31.9333 168.023 30.2C168.823 28.4667 169.303 27.6 169.463 27.6C169.65 27.6 169.743 27.7067 169.743 27.92C169.743 28.6667 169.357 29.8533 168.583 31.48C166.477 35.96 164.703 38.2 163.263 38.2ZM158.383 25.4C157.637 25.4 156.837 25.96 155.983 27.08C155.157 28.1733 154.743 29.4667 154.743 30.96C154.743 32.4533 154.957 33.68 155.383 34.64C155.837 35.6 156.423 36.08 157.143 36.08C158.023 36.08 159.317 33.88 161.023 29.48C161.05 29.2667 161.077 28.9067 161.103 28.4C161.157 27.8667 161.197 27.4667 161.223 27.2C160.983 26.7733 160.557 26.3733 159.943 26C159.357 25.6 158.837 25.4 158.383 25.4ZM195.745 29.64C195.745 33.9867 195.985 36.16 196.465 36.16C196.945 36.16 197.585 35.6133 198.385 34.52C199.211 33.4 200.011 31.9733 200.785 30.24C201.585 28.48 202.065 27.6 202.225 27.6C202.411 27.6 202.505 27.7067 202.505 27.92C202.505 28.6667 202.051 30.0267 201.145 32C199.198 36.1333 197.451 38.2 195.905 38.2C195.318 38.2 194.785 38.1333 194.305 38C193.825 37.84 193.531 37.6933 193.425 37.56C193.158 37.24 193.025 36.0667 193.025 34.04C193.025 29.24 193.185 25.3467 193.505 22.36C191.958 23.88 190.545 25.6133 189.265 27.56C189.825 29.6933 190.105 31.5467 190.105 33.12C190.105 34.6667 189.798 35.8667 189.185 36.72C188.598 37.5733 187.851 38 186.945 38C185.851 38 185.305 36.9467 185.305 34.84C185.305 33.4 185.878 31.4933 187.025 29.12C186.491 27.2533 185.718 25.4267 184.705 23.64C184.278 26.0667 183.625 28.5467 182.745 31.08C181.865 33.6133 180.958 35.5067 180.025 36.76C179.091 37.9867 177.985 38.6 176.705 38.6C175.771 38.6 175.305 38.24 175.305 37.52C175.305 36.9333 175.505 36.52 175.905 36.28C176.305 36.04 176.771 35.8667 177.305 35.76C177.865 35.6267 178.225 35.48 178.385 35.32C179.425 34.2267 180.398 32.36 181.305 29.72C182.238 27.08 182.918 24.3733 183.345 21.6C182.198 20.1067 181.625 19 181.625 18.28C181.625 17.5333 181.811 16.88 182.185 16.32C182.585 15.76 183.225 15.48 184.105 15.48C184.371 15.48 184.598 15.8267 184.785 16.52C184.971 17.1867 185.065 17.8933 185.065 18.64C186.691 21.0133 187.931 23.4667 188.785 26C190.278 23.5467 191.985 21.28 193.905 19.2C194.731 14.16 195.691 11.64 196.785 11.64C197.158 11.64 197.545 11.92 197.945 12.48C198.371 13.04 198.585 13.6133 198.585 14.2C198.585 16.0133 197.798 17.8533 196.225 19.72C195.905 21.9867 195.745 25.2933 195.745 29.64ZM187.425 30.84C186.785 32.2533 186.465 33.52 186.465 34.64C186.465 35.7333 186.598 36.28 186.865 36.28C187.131 36.28 187.331 35.96 187.465 35.32C187.598 34.6533 187.665 33.96 187.665 33.24C187.665 32.52 187.585 31.72 187.425 30.84ZM212.599 38.2C211.559 38.2 210.773 37.9867 210.239 37.56C210.053 37.3733 209.959 36.9067 209.959 36.16C209.959 35.3867 209.986 34.36 210.039 33.08C209.346 34.8133 208.653 36.1067 207.959 36.96C207.293 37.7867 206.426 38.2 205.359 38.2C204.293 38.2 203.359 37.7067 202.559 36.72C201.759 35.7067 201.359 34.1333 201.359 32C201.359 29.84 201.959 27.9333 203.159 26.28C204.386 24.6267 205.986 23.8 207.959 23.8C208.813 23.8 209.773 24.36 210.839 25.48C211.053 25.1867 211.426 24.84 211.959 24.44C212.519 24.0133 212.986 23.8 213.359 23.8C213.759 23.8 213.959 24.3067 213.959 25.32C213.959 25.5867 213.879 26.1067 213.719 26.88C213.586 27.6533 213.426 28.2133 213.239 28.56C212.999 29.1733 212.879 31.3467 212.879 35.08C212.879 35.8 212.959 36.16 213.119 36.16C213.573 36.1333 214.199 35.5733 214.999 34.48C215.799 33.36 216.586 31.9333 217.359 30.2C218.159 28.4667 218.639 27.6 218.799 27.6C218.986 27.6 219.079 27.7067 219.079 27.92C219.079 28.6667 218.693 29.8533 217.919 31.48C215.813 35.96 214.039 38.2 212.599 38.2ZM207.719 25.4C206.973 25.4 206.173 25.96 205.319 27.08C204.493 28.1733 204.079 29.4667 204.079 30.96C204.079 32.4533 204.293 33.68 204.719 34.64C205.173 35.6 205.759 36.08 206.479 36.08C207.359 36.08 208.653 33.88 210.359 29.48C210.386 29.2667 210.413 28.9067 210.439 28.4C210.493 27.8667 210.533 27.4667 210.559 27.2C210.319 26.7733 209.893 26.3733 209.279 26C208.693 25.6 208.173 25.4 207.719 25.4ZM220.152 27.56L222.352 27.32C222.565 27.32 222.752 27.44 222.912 27.68C223.072 27.92 223.152 28.1733 223.152 28.44C223.152 28.7067 223.059 29.6133 222.872 31.16C222.712 32.7067 222.632 33.9333 222.632 34.84C222.632 35.72 222.712 36.16 222.872 36.16C223.325 36.1333 223.952 35.5733 224.752 34.48C225.552 33.36 226.339 31.9333 227.112 30.2C227.912 28.4667 228.392 27.6 228.552 27.6C228.739 27.6 228.832 27.7067 228.832 27.92C228.832 28.6667 228.445 29.8533 227.672 31.48C225.565 35.96 223.792 38.2 222.352 38.2C221.312 38.2 220.525 37.9867 219.992 37.56C219.805 37.3733 219.712 36.2133 219.712 34.08C219.712 31.9467 219.939 30.12 220.392 28.6C218.845 28.6 217.765 28.1067 217.152 27.12C216.832 26.6133 216.672 26.04 216.672 25.4C216.672 24.76 216.805 24.2 217.072 23.72C217.339 23.24 217.712 23 218.192 23C218.699 23 219.152 23.2667 219.552 23.8C219.979 24.3067 220.192 24.88 220.192 25.52C220.192 26.16 220.005 26.8 219.632 27.44C219.739 27.52 219.912 27.56 220.152 27.56ZM235.827 31.48C233.721 35.96 231.934 38.2 230.467 38.2C229.027 38.2 228.174 38.0267 227.907 37.68C227.667 37.3333 227.547 36.1867 227.547 34.24C227.547 32.2933 227.734 29.48 228.107 25.8C226.774 25.5333 226.067 24.9867 225.987 24.16C225.987 23.7333 226.267 23.52 226.827 23.52C227.387 23.52 227.881 23.6267 228.307 23.84C228.547 21.92 228.827 19.9733 229.147 18C229.227 17.4933 229.481 17.0133 229.907 16.56C230.334 16.1067 230.747 15.88 231.147 15.88C231.494 15.88 231.667 16.4267 231.667 17.52C231.667 18.0267 231.481 20.36 231.107 24.52C231.827 24.3867 232.614 24.12 233.467 23.72C234.347 23.32 234.867 23.12 235.027 23.12C235.507 23.12 235.747 23.2667 235.747 23.56C235.774 23.8267 235.281 24.2 234.267 24.68C233.254 25.1333 232.161 25.48 230.987 25.72C230.667 29.6133 230.507 32.56 230.507 34.56C230.507 35.6267 230.667 36.16 230.987 36.16C231.467 36.1333 232.107 35.5733 232.907 34.48C233.707 33.3867 234.494 31.9733 235.267 30.24C236.067 28.48 236.547 27.6 236.707 27.6C236.894 27.6 236.987 27.7067 236.987 27.92C236.987 28.6667 236.601 29.8533 235.827 31.48ZM236.394 18.44C236.394 17.96 236.647 17.5467 237.154 17.2C237.661 16.8533 238.114 16.68 238.514 16.68C239.234 16.68 239.594 17.0933 239.594 17.92C239.594 18.7467 239.381 19.4667 238.954 20.08C238.527 20.6667 237.927 20.96 237.154 20.96C236.647 20.96 236.394 20.12 236.394 18.44ZM237.554 38.2C236.514 38.2 235.727 37.9867 235.194 37.56C235.007 37.3733 234.914 36.7067 234.914 35.56C234.914 34.4133 234.994 32.5067 235.154 29.84C235.341 27.1467 235.501 25.6933 235.634 25.48C235.767 25.2667 236.181 24.8667 236.874 24.28C237.567 23.6933 238.101 23.4 238.474 23.4C238.874 23.4 239.074 23.9067 239.074 24.92C239.074 25.1867 238.994 25.7067 238.834 26.48C238.701 27.2533 238.541 27.8133 238.354 28.16C238.007 29.04 237.834 31.3467 237.834 35.08C237.834 35.8 237.914 36.16 238.074 36.16C238.527 36.1333 239.154 35.5733 239.954 34.48C240.754 33.36 241.541 31.9333 242.314 30.2C243.114 28.4667 243.594 27.6 243.754 27.6C243.941 27.6 244.034 27.7067 244.034 27.92C244.034 28.6667 243.647 29.8533 242.874 31.48C240.767 35.96 238.994 38.2 237.554 38.2ZM245.026 35.84L245.066 37.08C245.066 37.8267 244.853 38.2 244.426 38.2C243.786 38.2 243.173 38.12 242.586 37.96C242 37.7733 241.706 37.5333 241.706 37.24C241.706 36.92 241.773 35.8667 241.906 34.08C242.066 32.2667 242.146 30.9067 242.146 30V27.64C242.146 26.36 242.28 25.5867 242.546 25.32C242.813 25.0533 243.28 24.6667 243.946 24.16C244.64 23.6533 245.133 23.4 245.426 23.4C245.746 23.4 245.946 23.4533 246.026 23.56C246.106 23.6667 246.146 23.8667 246.146 24.16C246.146 25.5733 245.88 26.9067 245.346 28.16C245.213 29.68 245.146 30.7333 245.146 31.32C245.253 31.16 245.813 30.2533 246.826 28.6C247.84 26.9467 248.693 25.7333 249.386 24.96C250.106 24.1867 250.746 23.8 251.306 23.8C251.866 23.8 252.36 23.9867 252.786 24.36C253.24 24.7333 253.466 25.2 253.466 25.76C253.466 26.9333 253.333 28.6667 253.066 30.96C252.826 33.2267 252.706 34.6667 252.706 35.28C252.706 35.8667 252.786 36.16 252.946 36.16C253.4 36.1333 254.026 35.5733 254.826 34.48C255.626 33.36 256.413 31.9333 257.186 30.2C257.986 28.4667 258.466 27.6 258.626 27.6C258.813 27.6 258.906 27.7067 258.906 27.92C258.906 28.6667 258.52 29.8533 257.746 31.48C255.64 35.96 253.866 38.2 252.426 38.2C251.386 38.2 250.6 37.9867 250.066 37.56C249.88 37.3733 249.786 36.8933 249.786 36.12C249.786 35.32 249.853 34.04 249.986 32.28C250.146 30.4933 250.226 29.16 250.226 28.28C250.226 27.4 250.066 26.96 249.746 26.96C249.453 26.96 248.653 27.88 247.346 29.72C246.04 31.5333 245.346 32.6933 245.266 33.2C245.106 34.1333 245.026 35.0133 245.026 35.84ZM262.67 25.76L262.75 25.16C262.75 24.68 262.47 24.44 261.91 24.44C261.377 24.44 260.857 24.8 260.35 25.52C259.843 26.2133 259.59 26.7867 259.59 27.24C259.59 27.6933 259.617 28.0533 259.67 28.32C259.723 28.5867 259.777 28.8133 259.83 29C259.91 29.16 260.03 29.36 260.19 29.6C260.35 29.84 260.47 30.0133 260.55 30.12L260.99 30.68C261.177 30.9467 261.31 31.12 261.39 31.2C262.777 30.0533 264.43 28.7733 266.35 27.36C266.457 27.28 266.577 27.24 266.71 27.24C266.977 27.24 267.11 27.3867 267.11 27.68C267.11 27.9733 266.99 28.2 266.75 28.36C265.043 29.4533 263.43 30.64 261.91 31.92C262.497 32.7733 262.79 33.7067 262.79 34.72C262.79 35.7333 262.403 36.6 261.63 37.32C260.857 38.04 259.87 38.4 258.67 38.4C257.47 38.4 256.87 37.8267 256.87 36.68C256.87 35.8533 257.75 34.5867 259.51 32.88C259.377 32.72 259.137 32.4667 258.79 32.12C258.443 31.7467 258.177 31.4533 257.99 31.24C257.83 31.0267 257.63 30.7467 257.39 30.4C256.963 29.7333 256.75 29.0133 256.75 28.24C256.75 26.6667 257.257 25.4 258.27 24.44C259.283 23.4533 260.363 22.96 261.51 22.96C262.23 22.96 262.79 23.16 263.19 23.56C263.59 23.9333 263.79 24.32 263.79 24.72C263.79 25.6267 263.577 26.08 263.15 26.08C262.83 26.08 262.67 25.9733 262.67 25.76ZM260.11 33.64C259.043 34.7067 258.51 35.5733 258.51 36.24C258.51 36.88 258.843 37.2 259.51 37.2C259.91 37.2 260.243 37.04 260.51 36.72C261.097 35.92 260.963 34.8933 260.11 33.64Z" fill="#018079"/>
<path d="M93.61 49.12C93.61 49.4733 93.5267 49.8067 93.36 50.12C93.1933 50.4333 92.9267 50.69 92.56 50.89C92.1933 51.0833 91.7233 51.18 91.15 51.18H89.89V54H88.75V47.05H91.15C91.6833 47.05 92.1333 47.1433 92.5 47.33C92.8733 47.51 93.15 47.7567 93.33 48.07C93.5167 48.3833 93.61 48.7333 93.61 49.12ZM91.15 50.25C91.5833 50.25 91.9067 50.1533 92.12 49.96C92.3333 49.76 92.44 49.48 92.44 49.12C92.44 48.36 92.01 47.98 91.15 47.98H89.89V50.25H91.15ZM100.037 54.07C99.5706 54.07 99.1506 53.99 98.7773 53.83C98.4039 53.6633 98.1106 53.43 97.8973 53.13C97.6839 52.83 97.5773 52.48 97.5773 52.08H98.7973C98.8239 52.38 98.9406 52.6267 99.1473 52.82C99.3606 53.0133 99.6573 53.11 100.037 53.11C100.431 53.11 100.737 53.0167 100.957 52.83C101.177 52.6367 101.287 52.39 101.287 52.09C101.287 51.8567 101.217 51.6667 101.077 51.52C100.944 51.3733 100.774 51.26 100.567 51.18C100.367 51.1 100.087 51.0133 99.7273 50.92C99.2739 50.8 98.9039 50.68 98.6173 50.56C98.3373 50.4333 98.0973 50.24 97.8973 49.98C97.6973 49.72 97.5973 49.3733 97.5973 48.94C97.5973 48.54 97.6973 48.19 97.8973 47.89C98.0973 47.59 98.3773 47.36 98.7373 47.2C99.0973 47.04 99.5139 46.96 99.9873 46.96C100.661 46.96 101.211 47.13 101.637 47.47C102.071 47.8033 102.311 48.2633 102.357 48.85H101.097C101.077 48.5967 100.957 48.38 100.737 48.2C100.517 48.02 100.227 47.93 99.8673 47.93C99.5406 47.93 99.2739 48.0133 99.0673 48.18C98.8606 48.3467 98.7573 48.5867 98.7573 48.9C98.7573 49.1133 98.8206 49.29 98.9473 49.43C99.0806 49.5633 99.2473 49.67 99.4473 49.75C99.6473 49.83 99.9206 49.9167 100.267 50.01C100.727 50.1367 101.101 50.2633 101.387 50.39C101.681 50.5167 101.927 50.7133 102.127 50.98C102.334 51.24 102.437 51.59 102.437 52.03C102.437 52.3833 102.341 52.7167 102.147 53.03C101.961 53.3433 101.684 53.5967 101.317 53.79C100.957 53.9767 100.531 54.07 100.037 54.07ZM107.972 47.05V54H106.832V47.05H107.972ZM112.139 50.51C112.139 49.83 112.296 49.22 112.609 48.68C112.929 48.14 113.359 47.72 113.899 47.42C114.446 47.1133 115.042 46.96 115.689 46.96C116.429 46.96 117.086 47.1433 117.659 47.51C118.239 47.87 118.659 48.3833 118.919 49.05H117.549C117.369 48.6833 117.119 48.41 116.799 48.23C116.479 48.05 116.109 47.96 115.689 47.96C115.229 47.96 114.819 48.0633 114.459 48.27C114.099 48.4767 113.816 48.7733 113.609 49.16C113.409 49.5467 113.309 49.9967 113.309 50.51C113.309 51.0233 113.409 51.4733 113.609 51.86C113.816 52.2467 114.099 52.5467 114.459 52.76C114.819 52.9667 115.229 53.07 115.689 53.07C116.109 53.07 116.479 52.98 116.799 52.8C117.119 52.62 117.369 52.3467 117.549 51.98H118.919C118.659 52.6467 118.239 53.16 117.659 53.52C117.086 53.88 116.429 54.06 115.689 54.06C115.036 54.06 114.439 53.91 113.899 53.61C113.359 53.3033 112.929 52.88 112.609 52.34C112.296 51.8 112.139 51.19 112.139 50.51ZM126.474 54.07C125.827 54.07 125.23 53.92 124.684 53.62C124.144 53.3133 123.714 52.89 123.394 52.35C123.08 51.8033 122.924 51.19 122.924 50.51C122.924 49.83 123.08 49.22 123.394 48.68C123.714 48.14 124.144 47.72 124.684 47.42C125.23 47.1133 125.827 46.96 126.474 46.96C127.127 46.96 127.724 47.1133 128.264 47.42C128.81 47.72 129.24 48.14 129.554 48.68C129.867 49.22 130.024 49.83 130.024 50.51C130.024 51.19 129.867 51.8033 129.554 52.35C129.24 52.89 128.81 53.3133 128.264 53.62C127.724 53.92 127.127 54.07 126.474 54.07ZM126.474 53.08C126.934 53.08 127.344 52.9767 127.704 52.77C128.064 52.5567 128.344 52.2567 128.544 51.87C128.75 51.4767 128.854 51.0233 128.854 50.51C128.854 49.9967 128.75 49.5467 128.544 49.16C128.344 48.7733 128.064 48.4767 127.704 48.27C127.344 48.0633 126.934 47.96 126.474 47.96C126.014 47.96 125.604 48.0633 125.244 48.27C124.884 48.4767 124.6 48.7733 124.394 49.16C124.194 49.5467 124.094 49.9967 124.094 50.51C124.094 51.0233 124.194 51.4767 124.394 51.87C124.6 52.2567 124.884 52.5567 125.244 52.77C125.604 52.9767 126.014 53.08 126.474 53.08ZM127.504 45.56L125.294 46.65V45.81L127.504 44.59V45.56ZM135.335 53.08H137.685V54H134.195V47.05H135.335V53.08ZM144.859 54.07C144.212 54.07 143.615 53.92 143.069 53.62C142.529 53.3133 142.099 52.89 141.779 52.35C141.465 51.8033 141.309 51.19 141.309 50.51C141.309 49.83 141.465 49.22 141.779 48.68C142.099 48.14 142.529 47.72 143.069 47.42C143.615 47.1133 144.212 46.96 144.859 46.96C145.512 46.96 146.109 47.1133 146.649 47.42C147.195 47.72 147.625 48.14 147.939 48.68C148.252 49.22 148.409 49.83 148.409 50.51C148.409 51.19 148.252 51.8033 147.939 52.35C147.625 52.89 147.195 53.3133 146.649 53.62C146.109 53.92 145.512 54.07 144.859 54.07ZM144.859 53.08C145.319 53.08 145.729 52.9767 146.089 52.77C146.449 52.5567 146.729 52.2567 146.929 51.87C147.135 51.4767 147.239 51.0233 147.239 50.51C147.239 49.9967 147.135 49.5467 146.929 49.16C146.729 48.7733 146.449 48.4767 146.089 48.27C145.729 48.0633 145.319 47.96 144.859 47.96C144.399 47.96 143.989 48.0633 143.629 48.27C143.269 48.4767 142.985 48.7733 142.779 49.16C142.579 49.5467 142.479 49.9967 142.479 50.51C142.479 51.0233 142.579 51.4767 142.779 51.87C142.985 52.2567 143.269 52.5567 143.629 52.77C143.989 52.9767 144.399 53.08 144.859 53.08ZM157.61 49.05C157.43 48.7033 157.18 48.4433 156.86 48.27C156.54 48.09 156.17 48 155.75 48C155.29 48 154.88 48.1033 154.52 48.31C154.16 48.5167 153.877 48.81 153.67 49.19C153.47 49.57 153.37 50.01 153.37 50.51C153.37 51.01 153.47 51.4533 153.67 51.84C153.877 52.22 154.16 52.5133 154.52 52.72C154.88 52.9267 155.29 53.03 155.75 53.03C156.37 53.03 156.874 52.8567 157.26 52.51C157.647 52.1633 157.884 51.6933 157.97 51.1H155.36V50.19H159.19V51.08C159.117 51.62 158.924 52.1167 158.61 52.57C158.304 53.0233 157.9 53.3867 157.4 53.66C156.907 53.9267 156.357 54.06 155.75 54.06C155.097 54.06 154.5 53.91 153.96 53.61C153.42 53.3033 152.99 52.88 152.67 52.34C152.357 51.8 152.2 51.19 152.2 50.51C152.2 49.83 152.357 49.22 152.67 48.68C152.99 48.14 153.42 47.72 153.96 47.42C154.507 47.1133 155.104 46.96 155.75 46.96C156.49 46.96 157.147 47.1433 157.72 47.51C158.3 47.87 158.72 48.3833 158.98 49.05H157.61ZM167.555 52.58H164.645L164.145 54H162.955L165.445 47.04H166.765L169.255 54H168.055L167.555 52.58ZM167.235 51.65L166.105 48.42L164.965 51.65H167.235ZM178.655 50.51C178.655 49.83 178.812 49.22 179.125 48.68C179.445 48.14 179.875 47.72 180.415 47.42C180.962 47.1133 181.558 46.96 182.205 46.96C182.945 46.96 183.602 47.1433 184.175 47.51C184.755 47.87 185.175 48.3833 185.435 49.05H184.065C183.885 48.6833 183.635 48.41 183.315 48.23C182.995 48.05 182.625 47.96 182.205 47.96C181.745 47.96 181.335 48.0633 180.975 48.27C180.615 48.4767 180.332 48.7733 180.125 49.16C179.925 49.5467 179.825 49.9967 179.825 50.51C179.825 51.0233 179.925 51.4733 180.125 51.86C180.332 52.2467 180.615 52.5467 180.975 52.76C181.335 52.9667 181.745 53.07 182.205 53.07C182.625 53.07 182.995 52.98 183.315 52.8C183.635 52.62 183.885 52.3467 184.065 51.98H185.435C185.175 52.6467 184.755 53.16 184.175 53.52C183.602 53.88 182.945 54.06 182.205 54.06C181.552 54.06 180.955 53.91 180.415 53.61C179.875 53.3033 179.445 52.88 179.125 52.34C178.812 51.8 178.655 51.19 178.655 50.51ZM190.96 53.08H193.31V54H189.82V47.05H190.96V53.08ZM198.453 47.05V54H197.313V47.05H198.453ZM198.913 45.56L196.703 46.65V45.81L198.913 44.59V45.56ZM208.71 54H207.57L204.14 48.81V54H203V47.04H204.14L207.57 52.22V47.04H208.71V54ZM214.397 47.05V54H213.257V47.05H214.397ZM218.563 50.51C218.563 49.83 218.72 49.22 219.033 48.68C219.353 48.14 219.783 47.72 220.323 47.42C220.87 47.1133 221.467 46.96 222.113 46.96C222.853 46.96 223.51 47.1433 224.083 47.51C224.663 47.87 225.083 48.3833 225.343 49.05H223.973C223.793 48.6833 223.543 48.41 223.223 48.23C222.903 48.05 222.533 47.96 222.113 47.96C221.653 47.96 221.243 48.0633 220.883 48.27C220.523 48.4767 220.24 48.7733 220.033 49.16C219.833 49.5467 219.733 49.9967 219.733 50.51C219.733 51.0233 219.833 51.4733 220.033 51.86C220.24 52.2467 220.523 52.5467 220.883 52.76C221.243 52.9667 221.653 53.07 222.113 53.07C222.533 53.07 222.903 52.98 223.223 52.8C223.543 52.62 223.793 52.3467 223.973 51.98H225.343C225.083 52.6467 224.663 53.16 224.083 53.52C223.51 53.88 222.853 54.06 222.113 54.06C221.46 54.06 220.863 53.91 220.323 53.61C219.783 53.3033 219.353 52.88 219.033 52.34C218.72 51.8 218.563 51.19 218.563 50.51ZM233.918 52.58H231.008L230.508 54H229.318L231.808 47.04H233.128L235.618 54H234.418L233.918 52.58ZM233.598 51.65L232.468 48.42L231.328 51.65H233.598Z" fill="black"/>
</svg>
